<?xml version="1.0" standalone="no"?>
<!DOCTYPE svg PUBLIC "-//W3C//DTD SVG 20010904//EN"
 "http://www.w3.org/TR/2001/REC-SVG-20010904/DTD/svg10.dtd">
<svg version="1.0" xmlns="http://www.w3.org/2000/svg"
 width="512.000000pt" height="512.000000pt" viewBox="0 0 512.000000 512.000000"
 preserveAspectRatio="xMidYMid meet">

<g transform="translate(0.000000,512.000000) scale(0.100000,-0.100000)"
fill="#000000" stroke="none">
<path d="M1795 5110 c-71 -11 -207 -52 -282 -85 -219 -97 -433 -317 -528 -544
-238 -564 54 -1212 634 -1405 60 -20 138 -39 172 -43 69 -7 58 -21 -18 -22
-73 -2 -265 -39 -385 -75 -315 -96 -583 -258 -818 -495 -236 -238 -391 -495
-486 -809 -65 -217 -75 -298 -81 -675 l-5 -337 1397 0 c1327 0 1397 1 1390 17
-16 42 -37 135 -50 223 -50 321 31 667 220 950 103 153 287 322 453 415 39 22
72 45 72 51 0 18 -214 238 -298 306 -296 238 -653 386 -1031 427 -96 11 -131
21 -70 21 20 0 73 10 119 21 383 97 663 380 773 779 29 109 29 371 0 480 -57
206 -148 367 -286 504 -136 136 -297 227 -487 275 -97 25 -307 36 -405 21z"/>
<path d="M3915 2090 c-214 -33 -430 -144 -586 -299 -135 -136 -230 -303 -280
-497 -32 -122 -33 -369 -1 -484 55 -203 146 -366 281 -501 135 -135 298 -226
501 -281 115 -32 362 -31 484 1 393 102 669 379 779 781 29 109 29 371 0 480
-57 206 -148 367 -286 504 -136 136 -297 227 -487 275 -97 25 -307 36 -405 21z
m62 -732 l93 -93 93 93 c51 50 97 92 102 92 12 0 205 -194 205 -206 0 -5 -42
-50 -92 -101 l-93 -93 95 -95 95 -95 -108 -107 -107 -108 -95 95 -95 95 -95
-95 -95 -95 -107 108 -108 107 95 95 95 95 -93 93 c-50 51 -92 96 -92 101 0
12 193 206 205 206 5 0 51 -42 102 -92z"/>
</g>
</svg>
