<?xml version="1.0" standalone="no"?>
<!DOCTYPE svg PUBLIC "-//W3C//DTD SVG 20010904//EN"
 "http://www.w3.org/TR/2001/REC-SVG-20010904/DTD/svg10.dtd">
<svg version="1.0" xmlns="http://www.w3.org/2000/svg"
 width="512.000000pt" height="512.000000pt" viewBox="0 0 512.000000 512.000000"
 preserveAspectRatio="xMidYMid meet">

<g transform="translate(0.000000,512.000000) scale(0.100000,-0.100000)"
fill="#000000" stroke="none">
<path d="M2370 4535 c-194 -55 -296 -230 -261 -452 6 -39 13 -77 16 -85 4 -10
-20 -13 -122 -14 -148 -1 -279 -24 -490 -84 -180 -51 -223 -66 -249 -91 -14
-13 -45 -24 -89 -30 -147 -21 -254 -66 -435 -184 -104 -68 -181 -107 -315
-160 -84 -34 -151 -96 -161 -150 -19 -105 21 -248 90 -321 50 -52 79 -56 195
-24 135 38 216 96 258 185 l18 39 279 112 279 111 135 7 c74 3 137 5 139 3 5
-5 -46 -174 -63 -211 -9 -18 -35 -44 -59 -58 -56 -34 -85 -93 -85 -176 0 -33
5 -72 11 -85 8 -18 7 -36 -5 -77 -41 -139 -29 -269 43 -454 54 -138 87 -256
117 -416 14 -74 31 -146 37 -159 16 -33 48 -43 82 -25 39 20 42 18 48 -23 4
-21 15 -55 26 -76 l19 -37 -27 -6 c-14 -3 -80 -23 -146 -44 -167 -54 -188 -59
-305 -69 l-103 -8 -50 31 c-41 25 -62 31 -123 34 -67 4 -79 1 -126 -25 -29
-17 -66 -33 -81 -37 -42 -10 -56 -49 -33 -91 32 -58 19 -172 -39 -345 -26 -80
-55 -150 -64 -157 -36 -28 -41 -35 -41 -62 0 -16 7 -34 15 -41 23 -19 20 -102
-5 -125 -11 -10 -20 -28 -20 -40 0 -22 28 -55 47 -55 6 0 27 -16 46 -35 46
-46 99 -48 173 -5 73 41 124 106 200 254 71 138 120 201 171 223 43 17 211 17
474 -2 227 -16 326 -10 424 24 74 26 143 71 195 127 62 67 83 123 88 229 4 78
-2 120 -43 320 -26 127 -47 247 -46 267 0 24 -21 93 -59 192 -33 86 -60 159
-60 164 0 9 206 79 298 102 53 13 72 45 55 91 -13 33 -15 31 57 54 30 10 78
29 107 41 l52 23 48 -24 c85 -42 160 -49 407 -36 121 6 248 14 281 17 l61 6
17 -54 c33 -105 96 -168 168 -168 26 0 46 -7 59 -20 11 -11 29 -20 40 -20 27
0 60 35 60 64 0 30 62 58 180 81 276 53 264 51 292 36 36 -20 76 -2 84 37 6
31 98 109 121 104 20 -4 53 18 62 41 5 12 4 34 -1 49 -7 18 -6 39 2 63 15 44
-1 97 -35 119 -46 30 -138 46 -326 56 -103 5 -247 17 -321 25 -126 16 -421 69
-439 80 -4 3 6 36 24 73 41 87 47 163 19 219 -47 91 -191 191 -359 249 -65 22
-102 41 -121 62 -16 17 -40 34 -53 37 -13 3 -78 18 -144 34 -114 26 -120 28
-118 52 1 13 9 89 18 168 34 301 -25 497 -162 546 -69 24 -280 30 -353 10z
m271 -115 c62 -11 92 -39 108 -97 6 -20 9 -38 8 -40 -2 -1 -27 4 -57 12 -107
29 -172 15 -226 -48 -18 -19 -33 -40 -36 -47 -3 -9 -13 -9 -43 0 -58 17 -112
-3 -145 -54 l-25 -39 -3 47 c-8 117 57 221 158 256 62 22 175 26 261 10z m23
-240 c14 -5 44 -11 66 -12 45 -3 44 -2 41 -108 -5 -165 -34 -273 -85 -320 -24
-22 -37 -25 -94 -25 -54 0 -79 6 -132 32 -36 17 -81 44 -100 61 l-35 30 1 83
c2 83 18 169 32 169 4 0 23 -13 42 -30 59 -49 98 -37 125 40 28 81 72 106 139
80z m-532 -399 c9 -108 29 -168 84 -258 90 -145 178 -188 307 -149 l46 14 -26
-52 c-14 -28 -41 -77 -59 -108 l-35 -56 -67 -7 c-268 -25 -520 -82 -744 -168
-45 -17 -68 -22 -68 -14 0 20 13 33 57 61 28 17 51 43 67 75 27 51 86 241 86
272 0 16 8 19 44 19 35 0 48 5 60 22 22 31 20 51 -7 76 -23 22 -26 22 -203 12
-98 -5 -193 -10 -209 -10 -29 0 -32 4 -68 98 -20 54 -37 103 -37 109 0 15 187
74 337 108 144 33 230 43 338 41 l90 -1 7 -84z m312 -160 c30 -11 77 -23 105
-27 28 -4 51 -10 51 -14 0 -19 -47 -64 -84 -81 -58 -26 -98 -24 -135 7 -38 31
-108 147 -117 192 l-6 32 65 -44 c36 -24 90 -53 121 -65z m501 23 c66 -15 123
-30 128 -33 4 -4 -1 -32 -11 -62 l-19 -54 -104 -8 c-131 -9 -141 -11 -177 -42
-30 -25 -69 -31 -105 -16 -17 6 -17 8 4 26 24 22 69 110 69 138 0 24 61 86 80
82 8 -3 69 -16 135 -31z m-1667 -61 c18 -48 29 -90 25 -94 -5 -4 -127 -56
-273 -114 -146 -59 -276 -117 -289 -129 -13 -11 -33 -44 -46 -72 -27 -62 -75
-94 -178 -120 -53 -13 -70 -14 -82 -4 -22 18 -57 119 -57 168 -1 59 25 83 130
122 102 38 158 67 307 163 156 100 303 159 415 166 10 1 26 -27 48 -86z m2027
-86 c139 -57 255 -149 255 -203 0 -28 -58 -174 -68 -174 -4 0 -63 16 -132 35
-181 51 -281 68 -407 67 l-113 0 -6 34 c-3 19 -3 50 0 69 6 29 11 35 34 36 15
0 68 4 117 9 80 7 98 5 160 -15 39 -13 105 -29 148 -35 68 -10 81 -9 103 4 29
20 33 66 7 88 -10 8 -53 21 -97 28 -129 20 -147 30 -130 74 9 24 40 19 129
-17z m-595 -221 c0 -13 3 -37 6 -53 6 -28 4 -30 -46 -41 -84 -20 -83 -20 -39
61 24 45 36 57 55 57 19 0 24 -5 24 -24z m170 -182 c0 -3 -11 -20 -25 -38 -63
-82 -98 -213 -77 -288 l10 -36 -52 -23 c-28 -12 -70 -28 -93 -35 -39 -12 -41
-11 -47 9 -11 42 -6 173 9 232 9 33 28 78 43 102 25 40 31 44 107 62 82 20
125 25 125 15z m530 -77 c129 -35 302 -77 383 -92 l149 -28 -6 -31 c-13 -66
-88 -111 -230 -140 -43 -9 -196 -24 -340 -32 -266 -16 -341 -12 -403 18 -121
59 -75 250 87 362 36 25 89 17 360 -57z m-895 2 c-24 -46 -45 -155 -44 -234 0
-62 17 -184 34 -240 5 -18 -4 -23 -87 -48 -51 -16 -156 -55 -233 -87 -180 -74
-263 -100 -349 -107 -98 -9 -129 -45 -90 -102 16 -22 21 -23 99 -19 60 4 114
17 204 47 68 23 125 41 126 39 7 -7 85 -214 85 -225 0 -8 -14 -13 -39 -13
-110 0 -319 -58 -418 -116 -25 -14 -48 -22 -52 -18 -4 5 -13 41 -21 79 -24
127 -61 258 -111 387 -76 198 -84 309 -28 445 21 51 22 53 99 83 224 86 557
155 768 159 l73 1 -16 -31z m1855 -159 c167 -9 222 -15 242 -27 14 -8 -30 -79
-72 -117 -60 -54 -116 -74 -276 -101 -182 -30 -212 -39 -306 -86 -108 -54
-135 -52 -163 14 -24 59 -20 72 28 86 116 35 206 115 227 203 l13 50 62 -6
c35 -3 145 -11 245 -16z m-2080 -954 c0 -2 20 -103 45 -224 59 -288 59 -358
-2 -439 -20 -27 -102 -93 -116 -93 -2 0 -7 30 -10 68 -7 85 -38 184 -75 243
-16 25 -62 72 -103 105 -84 68 -126 134 -136 212 l-5 49 73 27 c97 35 190 54
267 55 34 1 62 -1 62 -3z m-322 -447 c74 -54 122 -169 122 -291 l0 -57 -67 -3
c-38 -2 -144 3 -238 9 -93 7 -238 12 -321 11 -83 0 -156 2 -161 5 -14 9 -35
120 -28 151 3 14 7 37 10 51 5 22 11 25 49 25 76 0 215 29 355 75 202 65 221
67 279 24z m-830 -59 c28 -17 31 -23 25 -47 -13 -48 -7 -165 11 -226 l17 -58
-40 -50 c-21 -27 -69 -106 -105 -177 -71 -138 -112 -194 -157 -218 -28 -14
-30 -14 -40 13 -20 50 -4 178 36 298 67 201 76 239 84 349 7 87 13 112 27 123
27 20 104 16 142 -7z"/>
<path d="M4378 4061 c-79 -26 -137 -62 -196 -122 -189 -193 -181 -498 18 -682
94 -87 193 -127 320 -127 129 0 227 40 326 132 115 108 169 261 145 410 -31
194 -165 344 -352 393 -74 20 -191 18 -261 -4z m267 -122 c99 -37 202 -154
220 -250 7 -36 6 -37 -68 -88 l-75 -52 -16 -90 c-9 -49 -14 -94 -11 -99 4 -6
17 -10 31 -10 13 0 24 -4 24 -10 0 -16 -74 -60 -126 -76 -70 -21 -79 -19 -79
17 0 28 -8 36 -76 80 l-76 49 -73 -15 c-50 -11 -76 -12 -85 -5 -24 20 -65 128
-71 187 -17 160 96 325 256 374 52 15 168 10 225 -12z"/>
<path d="M4383 3871 c-5 -3 -32 -44 -61 -90 -61 -95 -63 -82 32 -186 l54 -59
101 43 c98 42 101 44 101 75 -1 36 -18 178 -23 182 -8 8 -197 40 -204 35z"/>
</g>
</svg>
