<?xml version="1.0" standalone="no"?>
<!DOCTYPE svg PUBLIC "-//W3C//DTD SVG 20010904//EN"
 "http://www.w3.org/TR/2001/REC-SVG-20010904/DTD/svg10.dtd">
<svg version="1.0" xmlns="http://www.w3.org/2000/svg"
 width="512.000000pt" height="512.000000pt" viewBox="0 0 512.000000 512.000000"
 preserveAspectRatio="xMidYMid meet">

<g transform="translate(0.000000,512.000000) scale(0.100000,-0.100000)"
fill="#000000" stroke="none">
<path d="M2325 5090 c-121 -15 -227 -30 -236 -34 -23 -10 -41 -54 -33 -80 3
-11 223 -238 487 -504 l482 -482 -167 -167 -168 -168 -488 488 c-268 268 -494
487 -502 487 -35 0 -62 -14 -74 -39 -8 -14 -26 -137 -42 -272 l-27 -246 238
-344 c186 -268 260 -366 334 -443 l96 -98 -1092 -1087 c-604 -601 -1099 -1102
-1109 -1121 -28 -55 -24 -147 8 -201 15 -24 183 -200 375 -391 370 -369 393
-387 484 -388 83 0 128 33 347 253 217 219 223 228 181 281 -15 19 -29 26 -56
26 -34 0 -51 -15 -243 -205 -145 -144 -213 -205 -229 -205 -16 0 -122 98 -369
341 -333 327 -371 367 -372 398 0 7 37 51 82 97 l82 84 83 -81 c77 -76 85 -81
116 -75 17 3 40 16 50 27 33 40 22 66 -63 153 l-80 82 73 71 72 72 42 -39 c66
-62 130 -52 148 22 6 23 0 35 -39 75 l-45 48 72 73 72 72 77 -77 c68 -68 82
-77 114 -77 26 0 42 7 55 23 35 43 25 67 -61 155 l-80 82 73 71 72 72 43 -40
c36 -34 48 -40 79 -37 25 2 42 11 56 30 26 34 18 66 -30 119 l-36 40 68 69 69
70 70 -69 c39 -37 81 -73 93 -80 48 -25 103 14 103 72 0 23 -17 47 -77 108
l-77 80 69 69 68 69 47 -40 c55 -46 95 -51 128 -16 34 36 28 71 -20 123 l-42
45 72 72 72 72 79 -79 c65 -64 86 -79 110 -79 43 0 71 28 71 71 0 29 -11 46
-77 113 l-77 80 72 72 72 71 43 -42 c49 -48 93 -56 127 -22 33 33 26 74 -22
126 l-42 45 77 77 77 77 165 -165 165 -165 -474 -475 c-261 -261 -482 -491
-492 -510 -26 -51 -25 -153 3 -205 12 -22 85 -103 162 -180 78 -77 141 -144
141 -150 0 -6 -99 -110 -221 -230 -122 -121 -225 -230 -230 -243 -11 -28 4
-67 30 -81 54 -29 64 -22 306 219 l230 230 100 -100 c115 -116 160 -142 243
-142 84 0 124 22 226 122 l92 90 64 -66 c36 -36 77 -72 92 -80 45 -23 100 -18
144 15 45 33 273 264 298 301 9 14 16 45 16 73 0 48 -2 52 -75 126 -41 43 -75
82 -75 87 0 5 70 79 155 164 l155 155 253 -253 c258 -257 271 -267 317 -242
32 17 37 38 49 195 17 220 15 213 59 224 141 38 241 198 213 339 -20 101 -86
183 -180 225 -55 24 -157 26 -217 4 l-41 -15 -167 167 -166 166 163 163 c89
89 166 162 171 162 6 0 85 -75 177 -167 l168 -166 56 2 c145 4 656 51 675 61
24 13 43 55 35 79 -2 9 -415 426 -917 927 l-913 911 -259 178 c-142 97 -294
202 -338 231 -58 40 -87 54 -111 53 -18 -1 -131 -14 -252 -29z m1190 -1590
l380 -380 -165 -164 -165 -164 -385 379 -385 379 57 57 57 57 80 -77 c68 -67
83 -77 114 -77 39 0 77 36 77 73 0 11 -35 55 -82 103 l-82 84 54 55 c30 30 57
55 60 55 3 0 176 -171 385 -380z m-263 -1032 l69 -71 -58 -61 c-32 -34 -109
-114 -172 -178 l-114 -118 6 -43 c6 -43 5 -44 -57 -106 -58 -58 -64 -61 -90
-51 -15 5 -35 10 -44 10 -9 0 -102 -85 -207 -190 l-191 -190 -74 75 -75 75
460 460 c253 253 464 460 469 460 4 0 40 -32 78 -72z m976 -257 c64 -34 84
-153 36 -211 -117 -139 -326 -8 -248 155 35 74 131 99 212 56z m-1115 -993
l-123 -123 -55 55 -55 55 122 122 123 123 55 -55 55 -55 -122 -122z"/>
</g>
</svg>
