<?xml version="1.0" standalone="no"?>
<!DOCTYPE svg PUBLIC "-//W3C//DTD SVG 20010904//EN"
 "http://www.w3.org/TR/2001/REC-SVG-20010904/DTD/svg10.dtd">
<svg version="1.0" xmlns="http://www.w3.org/2000/svg"
 width="512.000000pt" height="512.000000pt" viewBox="0 0 512.000000 512.000000"
 preserveAspectRatio="xMidYMid meet">

<g transform="translate(0.000000,512.000000) scale(0.100000,-0.100000)"
fill="#000000" stroke="none">
<path d="M2829 5024 c-398 -72 -723 -380 -829 -786 -27 -103 -37 -289 -21
-370 7 -32 13 -58 15 -58 1 0 19 9 41 20 22 11 49 20 62 20 18 0 23 7 28 48
42 297 148 507 332 653 75 60 212 133 269 145 30 6 33 3 69 -63 112 -202 277
-420 382 -505 107 -87 117 -91 171 -84 116 15 275 -45 356 -135 25 -28 46 -55
46 -59 0 -5 17 -14 38 -20 20 -7 42 -18 47 -24 6 -7 26 -13 45 -13 53 -1 114
-17 153 -42 32 -20 35 -20 42 -4 4 10 10 86 13 168 3 114 0 171 -12 238 -84
443 -437 796 -875 872 -102 18 -270 18 -372 -1z"/>
<path d="M2505 4176 c-32 -7 -50 -16 -50 -26 0 -11 10 -14 40 -12 22 1 97 3
168 4 111 2 127 4 127 19 0 11 -11 19 -31 23 -49 10 -199 5 -254 -8z"/>
<path d="M3375 4000 c-8 -12 300 -148 312 -137 7 7 -76 76 -114 95 -68 35
-187 60 -198 42z"/>
<path d="M2554 3895 c-46 -31 -68 -127 -44 -189 22 -58 80 -83 132 -55 25 13
57 84 58 126 0 99 -80 165 -146 118z m60 -77 c23 -32 20 -65 -9 -94 -24 -24
-28 -25 -48 -11 -25 16 -35 74 -17 107 14 27 55 26 74 -2z"/>
<path d="M3295 3862 c-65 -13 -109 -136 -74 -205 35 -68 84 -84 134 -45 98 77
51 273 -60 250z m25 -82 c38 -38 15 -120 -35 -120 -28 0 -45 26 -45 69 0 30
29 71 50 71 6 0 19 -9 30 -20z"/>
<path d="M2125 3423 c4 -10 9 -72 12 -138 8 -183 -10 -264 -101 -450 -200
-408 -236 -620 -153 -905 l13 -45 108 160 c179 262 218 314 289 386 66 66 168
129 209 129 10 0 75 14 143 31 l125 31 0 114 c0 102 -2 114 -17 114 -36 0
-185 59 -255 100 -148 89 -278 251 -330 415 -13 44 -29 75 -37 75 -9 0 -11 -6
-6 -17z"/>
<path d="M3988 3389 c-22 -13 -122 -16 -169 -6 l-36 7 -42 -85 c-102 -206
-283 -360 -506 -431 l-70 -22 -3 -96 c-3 -92 -2 -96 20 -101 212 -47 446 -112
497 -137 83 -40 177 -134 219 -216 42 -85 58 -166 86 -446 14 -131 28 -241 31
-244 12 -12 140 61 192 111 161 152 227 523 149 830 -18 70 -54 158 -122 300
-114 238 -170 375 -192 474 -17 74 -23 81 -54 62z"/>
<path d="M3220 2015 c0 -43 1 -45 30 -45 29 0 30 2 30 45 0 43 -1 45 -30 45
-29 0 -30 -2 -30 -45z"/>
<path d="M3512 1858 c-7 -46 -12 -124 -12 -174 l0 -92 28 -5 c15 -3 29 -4 31
-1 4 3 -30 354 -34 354 -1 0 -7 -37 -13 -82z"/>
<path d="M2706 913 l-139 -4 6 -322 c5 -282 13 -401 32 -484 5 -23 7 -23 185
-23 l180 0 0 38 c0 112 21 696 26 745 l6 57 -79 -2 c-43 -1 -140 -4 -217 -5z"/>
</g>
</svg>
