<?xml version="1.0" standalone="no"?>
<!DOCTYPE svg PUBLIC "-//W3C//DTD SVG 20010904//EN"
 "http://www.w3.org/TR/2001/REC-SVG-20010904/DTD/svg10.dtd">
<svg version="1.0" xmlns="http://www.w3.org/2000/svg"
 width="512.000000pt" height="512.000000pt" viewBox="0 0 512.000000 512.000000"
 preserveAspectRatio="xMidYMid meet">

<g transform="translate(0.000000,512.000000) scale(0.100000,-0.100000)"
fill="#000000" stroke="none">
<path d="M1340 5110 c-246 -35 -519 -176 -705 -365 -209 -213 -400 -598 -455
-918 -17 -101 -20 -164 -20 -409 l0 -290 -40 -81 c-65 -132 -84 -271 -54 -415
46 -227 211 -399 402 -419 l63 -6 26 -51 c39 -78 137 -216 205 -290 l60 -67
-45 -42 c-48 -45 -81 -102 -92 -157 -5 -27 -23 -49 -76 -95 -124 -107 -266
-280 -368 -448 -142 -235 -255 -584 -237 -729 15 -122 104 -240 221 -295 l60
-28 2275 0 2275 0 61 28 c77 36 154 113 191 192 l28 60 0 790 0 790 -28 61
c-36 77 -113 154 -192 191 l-60 28 -575 0 -575 0 -60 -28 c-79 -37 -156 -114
-191 -191 -26 -57 -29 -72 -32 -217 l-4 -157 -40 -5 c-43 -6 -85 -37 -99 -75
-9 -24 -10 -23 -68 27 -73 64 -77 69 -86 111 -10 52 -49 114 -96 152 l-41 35
67 74 c68 75 179 234 211 302 15 31 23 37 49 37 47 0 145 28 190 55 147 86
255 295 255 495 0 119 -46 271 -110 360 -19 26 -20 43 -20 247 0 351 -23 524
-96 735 -57 164 -152 354 -207 416 -26 28 -79 30 -107 2 -31 -31 -25 -72 22
-147 82 -135 158 -324 199 -500 17 -72 22 -133 26 -342 l5 -253 -23 8 c-80 25
-122 23 -145 -7 -6 -8 -42 -85 -80 -171 l-69 -158 -5 198 c-4 166 -8 202 -22
224 -35 54 -72 77 -170 109 -131 42 -312 132 -422 210 -49 35 -132 109 -185
165 -103 109 -140 134 -196 134 -57 0 -100 -24 -184 -104 -243 -231 -640 -376
-1032 -376 -130 0 -175 -10 -219 -47 -60 -50 -65 -68 -70 -297 l-5 -209 -69
157 c-38 87 -79 164 -90 172 -28 19 -63 17 -115 -6 l-43 -20 5 247 c4 202 9
266 26 345 60 272 208 569 378 757 31 35 96 94 144 131 277 213 609 279 936
184 81 -23 88 -24 132 -10 145 48 382 65 516 37 186 -38 355 -123 514 -255 61
-51 113 -48 136 7 21 51 3 80 -104 160 -156 118 -272 174 -460 225 -85 22
-116 25 -266 26 -145 0 -184 -3 -265 -23 -116 -29 -123 -29 -235 -2 -103 25
-320 35 -425 21z m869 -1350 c159 -175 398 -327 652 -415 l107 -37 3 -201 c4
-190 5 -204 27 -239 24 -39 91 -78 133 -78 13 0 43 9 66 19 47 22 67 52 138
214 28 63 53 107 62 107 23 0 108 -86 136 -138 54 -99 70 -232 42 -350 -19
-80 -46 -133 -98 -189 -63 -68 -107 -87 -203 -88 -53 0 -86 -5 -97 -14 -9 -7
-40 -57 -68 -111 -233 -446 -705 -730 -1214 -730 -368 0 -708 142 -970 405
-110 110 -176 200 -254 347 -33 60 -60 100 -73 104 -11 3 -40 3 -64 -1 -193
-29 -361 209 -326 460 14 99 65 208 122 259 22 20 44 36 48 36 4 0 32 -57 62
-126 30 -70 67 -139 82 -155 76 -76 204 -54 248 44 17 37 20 67 20 255 l0 212
84 0 c448 0 908 164 1178 420 40 38 76 69 79 70 3 0 38 -36 78 -80z m2636
-1787 c46 -24 75 -54 101 -103 18 -33 19 -72 19 -795 0 -723 -1 -762 -19 -795
-26 -49 -55 -79 -101 -103 -38 -21 -54 -22 -362 -25 l-323 -3 35 38 c81 87
153 222 180 336 21 89 19 238 -4 330 -62 241 -225 377 -453 377 l-79 0 32 47
c41 58 42 98 5 130 -15 12 -38 23 -51 23 -24 0 -85 -52 -85 -72 0 -7 -14 9
-30 34 -32 48 -72 83 -127 112 l-33 17 0 137 c0 75 5 153 10 173 13 45 47 96
81 121 63 47 72 48 634 45 521 -2 531 -2 570 -24z m-3422 -1053 c163 -353 297
-644 297 -646 0 -7 -615 368 -626 381 -7 10 -5 57 8 167 22 179 17 213 -41
269 -27 25 -59 41 -114 58 -42 12 -80 27 -83 33 -4 6 -13 95 -21 198 -17 217
-13 236 58 282 l41 27 92 -64 91 -63 298 -642z m1471 740 c68 -46 71 -62 57
-273 -7 -100 -15 -189 -17 -198 -3 -10 -28 -23 -67 -34 -83 -23 -131 -49 -155
-82 -37 -52 -40 -88 -21 -253 14 -120 15 -158 6 -167 -7 -7 -136 -87 -287
-178 -151 -92 -290 -176 -309 -188 -32 -19 -33 -19 -24 -1 5 10 140 302 299
647 l289 629 90 63 c50 35 91 64 93 64 2 1 23 -12 46 -29z m-1444 -237 c270
-86 631 -84 909 6 51 16 91 26 89 22 -2 -4 -21 -46 -42 -93 l-39 -86 -96 -21
c-53 -12 -127 -25 -165 -30 -82 -12 -106 -30 -106 -81 0 -73 51 -86 208 -57
39 8 72 11 72 8 0 -9 -383 -832 -385 -829 -4 4 -385 829 -385 832 0 2 32 -3
72 -11 117 -22 165 -21 190 4 45 46 17 118 -51 128 -81 13 -160 27 -224 42
-74 16 -72 14 -132 148 -21 49 -22 56 -7 50 9 -4 51 -18 92 -32z m2018 -38
c76 -23 122 -66 142 -134 l7 -27 -96 4 c-56 3 -99 9 -103 16 -14 21 -28 107
-22 132 7 28 6 28 72 9z m-2765 -143 c11 -150 42 -190 183 -233 38 -11 72 -24
76 -27 4 -4 -2 -77 -12 -164 -21 -175 -17 -207 29 -261 16 -17 167 -115 335
-217 l305 -185 -632 -3 c-477 -2 -643 0 -677 10 -63 17 -132 87 -150 152 -11
40 -11 62 -2 118 33 190 164 492 289 667 38 52 106 135 152 184 98 102 95 103
104 -41z m2492 41 c33 -37 66 -76 73 -85 12 -15 6 -25 -55 -85 -73 -73 -108
-131 -98 -164 10 -31 46 -59 77 -59 30 0 46 13 107 90 70 87 195 115 347 76
69 -17 74 -17 140 0 107 27 198 24 266 -9 67 -33 101 -70 140 -153 65 -139 61
-310 -11 -459 -87 -180 -274 -303 -413 -274 -36 8 -66 8 -103 1 -138 -28 -306
80 -398 256 -39 74 -67 160 -67 204 0 36 -40 78 -74 78 -14 0 -37 -11 -52 -23
-23 -20 -27 -31 -26 -66 5 -115 76 -284 167 -394 l55 -67 -552 0 -553 0 200
121 c457 277 447 270 473 322 l25 48 -17 142 c-25 215 -27 200 47 222 153 45
183 81 197 236 5 57 9 110 10 117 0 22 32 -3 95 -75z"/>
<path d="M1223 2850 c-34 -14 -43 -42 -43 -133 0 -74 3 -86 23 -105 30 -28 80
-29 107 -2 17 17 20 33 20 110 0 83 -2 93 -25 115 -25 26 -45 30 -82 15z"/>
<path d="M2473 2850 c-34 -14 -43 -42 -43 -128 0 -97 20 -132 76 -132 59 0 74
26 74 129 0 70 -4 93 -17 109 -21 25 -60 35 -90 22z"/>
<path d="M1665 2715 c-38 -37 -33 -71 19 -120 53 -52 118 -75 206 -75 152 0
288 133 204 199 -35 27 -66 26 -101 -3 -44 -36 -68 -46 -117 -46 -35 0 -54 7
-90 35 -54 41 -88 44 -121 10z"/>
<path d="M3722 1727 c-29 -31 -29 -77 1 -105 l23 -22 515 0 516 0 21 23 c29
31 29 77 -1 105 l-23 22 -515 0 -516 0 -21 -23z"/>
<path d="M4102 1427 c-29 -31 -29 -77 1 -105 23 -22 28 -22 348 -22 l326 0 21
23 c29 31 29 77 -1 105 -23 22 -28 22 -348 22 l-326 0 -21 -23z"/>
<path d="M4415 1125 c-14 -13 -25 -36 -25 -50 0 -14 11 -37 25 -50 24 -25 27
-25 193 -25 163 0 169 1 190 23 29 31 29 77 -1 105 -22 21 -33 22 -191 22
-164 0 -167 0 -191 -25z"/>
<path d="M4541 824 c-28 -35 -26 -69 4 -99 22 -23 31 -25 128 -25 95 0 105 2
125 23 29 31 29 77 -1 105 -21 20 -34 22 -129 22 -103 0 -107 -1 -127 -26z"/>
</g>
</svg>
