<?xml version="1.0" standalone="no"?>
<!DOCTYPE svg PUBLIC "-//W3C//DTD SVG 20010904//EN"
 "http://www.w3.org/TR/2001/REC-SVG-20010904/DTD/svg10.dtd">
<svg version="1.0" xmlns="http://www.w3.org/2000/svg"
 width="512.000000pt" height="512.000000pt" viewBox="0 0 512.000000 512.000000"
 preserveAspectRatio="xMidYMid meet">

<g transform="translate(0.000000,512.000000) scale(0.100000,-0.100000)"
fill="#000000" stroke="none">
<path d="M793 4929 c-70 -27 -146 -97 -180 -167 l-28 -57 -3 -1927 -2 -1928
1360 0 1360 0 0 -205 c0 -249 10 -286 99 -376 77 -76 146 -103 256 -97 133 7
238 78 294 197 l26 56 5 2120 c5 2062 6 2121 24 2165 45 105 126 184 228 220
52 19 34 19 -1667 19 -1695 0 -1721 0 -1772 -20z m946 -445 c112 -33 193 -159
176 -272 -36 -238 -350 -303 -470 -97 -54 92 -43 211 27 290 76 86 161 111
267 79z m1706 -4 c44 -37 38 -106 -11 -129 -17 -8 -154 -11 -445 -11 l-420 0
-24 25 c-42 42 -25 105 35 128 8 3 202 5 431 4 348 -2 419 -4 434 -17z m11
-533 c32 -37 30 -62 -6 -98 l-29 -30 -431 3 -432 3 -19 24 c-33 40 -22 91 26
119 15 9 136 11 443 9 l424 -2 24 -28z m-1663 -132 c187 -49 333 -195 382
-382 8 -31 15 -74 15 -95 l0 -38 -527 2 -528 3 3 45 c8 122 60 230 156 326 73
72 143 114 233 139 66 18 197 18 266 0z m1658 -384 c16 -16 29 -39 29 -51 0
-12 -13 -35 -29 -51 l-29 -29 -417 0 c-352 0 -420 2 -445 15 -52 27 -53 102
-2 129 23 13 95 15 445 16 l419 0 29 -29z m1 -521 c24 -25 29 -36 23 -58 -3
-15 -15 -36 -26 -47 -19 -20 -33 -20 -1185 -20 l-1166 0 -19 24 c-28 35 -25
85 7 110 27 21 28 21 1181 21 l1155 0 30 -30z m-18 -501 c32 -15 50 -57 37
-90 -21 -57 53 -54 -1175 -57 -622 -1 -1146 0 -1164 3 -72 13 -99 93 -46 134
27 21 28 21 1175 21 832 0 1155 -3 1173 -11z m1 -515 c23 -9 47 -61 39 -87 -3
-12 -13 -30 -22 -39 -14 -17 -83 -18 -1184 -18 -1155 0 -1168 0 -1188 20 -30
30 -27 83 6 109 27 21 28 21 1180 21 634 0 1160 -3 1169 -6z m0 -520 c24 -10
46 -60 39 -89 -14 -58 55 -55 -1211 -55 -1150 0 -1163 0 -1183 20 -27 27 -26
77 2 107 l21 23 1158 0 c637 0 1165 -3 1174 -6z"/>
<path d="M4289 4786 c-56 -20 -96 -53 -126 -104 l-28 -47 -3 -337 -3 -338 226
0 225 0 0 333 c0 377 -1 382 -79 449 -62 53 -141 70 -212 44z"/>
<path d="M4523 3300 c-87 -18 -176 -88 -221 -175 -26 -48 -27 -57 -30 -232
l-4 -183 322 0 322 0 -4 183 c-3 166 -5 186 -26 229 -65 132 -218 208 -359
178z"/>
<path d="M4270 1735 l0 -815 320 0 320 0 0 815 0 815 -320 0 -320 0 0 -815z"/>
<path d="M4382 578 c61 -101 132 -218 157 -260 25 -43 48 -78 51 -78 4 0 57
85 298 482 l23 38 -320 0 -321 0 112 -182z"/>
<path d="M210 576 c0 -155 19 -197 105 -237 38 -18 101 -19 1452 -19 l1411 0
-15 48 c-9 27 -17 104 -20 185 l-6 137 -1463 0 -1464 0 0 -114z"/>
</g>
</svg>
