<?xml version="1.0" standalone="no"?>
<!DOCTYPE svg PUBLIC "-//W3C//DTD SVG 20010904//EN"
 "http://www.w3.org/TR/2001/REC-SVG-20010904/DTD/svg10.dtd">
<svg version="1.0" xmlns="http://www.w3.org/2000/svg"
 width="512.000000pt" height="512.000000pt" viewBox="0 0 512.000000 512.000000"
 preserveAspectRatio="xMidYMid meet">

<g transform="translate(0.000000,512.000000) scale(0.100000,-0.100000)"
fill="#000000" stroke="none">
<path d="M2088 5101 c-74 -24 -115 -50 -170 -109 -50 -53 -75 -95 -93 -157
l-12 -40 -86 -6 c-139 -10 -242 -76 -299 -193 l-21 -45 -306 -3 -306 -3 -67
-33 c-106 -52 -167 -138 -188 -264 -13 -84 -14 -3606 0 -3701 18 -123 89 -220
200 -275 l55 -27 1115 -3 1114 -2 26 -24 c42 -39 116 -85 202 -126 347 -166
775 -93 1049 179 188 188 280 407 280 671 0 235 -74 434 -227 614 -103 121
-268 231 -421 281 l-53 17 0 1187 c0 1321 3 1256 -68 1361 -20 30 -59 70 -86
87 -86 58 -119 63 -435 63 l-286 0 -24 50 c-29 61 -105 134 -169 162 -31 14
-75 23 -129 26 l-81 4 -17 51 c-67 205 -294 323 -497 258z m-698 -780 l0 -90
-217 -3 c-210 -3 -219 -4 -251 -26 -18 -13 -40 -38 -50 -55 -16 -30 -17 -138
-17 -1752 l0 -1720 24 -39 c15 -24 40 -45 65 -57 39 -18 85 -19 944 -19 496 0
902 -3 902 -8 0 -4 20 -43 45 -86 25 -44 45 -81 45 -84 0 -2 -460 -2 -1022 0
-785 3 -1030 7 -1053 17 -43 17 -84 59 -106 106 -18 38 -19 111 -19 1891 l0
1850 26 52 c25 51 66 85 122 102 15 5 147 9 295 9 l267 1 0 -89z m2235 63 c22
-11 54 -40 70 -63 l30 -43 3 -1199 2 -1199 -85 0 -85 0 0 1108 c0 1058 -1
1109 -19 1148 -10 23 -34 52 -52 65 -33 23 -40 24 -251 27 l-218 3 0 90 0 90
283 -3 c263 -3 285 -4 322 -24z m-2233 -376 c5 -94 22 -135 70 -170 l33 -23
712 0 c702 0 712 0 740 21 47 34 73 98 73 181 l0 73 195 0 195 0 0 -1119 0
-1119 -52 -18 c-299 -97 -532 -342 -620 -651 -19 -65 -22 -104 -23 -228 0 -82
4 -174 8 -202 l9 -53 -799 0 c-439 0 -828 3 -865 7 l-68 6 0 1682 c0 925 3
1685 7 1688 3 4 91 7 193 7 l187 0 5 -82z m2428 -2295 c156 -31 325 -134 437
-266 61 -71 134 -211 160 -307 27 -101 25 -311 -5 -415 -41 -141 -138 -297
-240 -383 -161 -135 -326 -195 -532 -194 -168 1 -306 44 -450 142 -56 38 -158
140 -197 196 -40 56 -92 170 -115 250 -32 112 -32 296 0 407 92 322 361 553
686 587 85 8 155 4 256 -17z"/>
<path d="M2629 3661 l-24 -19 0 -562 0 -562 24 -19 c21 -17 41 -19 190 -19
162 0 168 1 189 23 l22 23 0 555 0 556 -23 21 c-22 21 -33 22 -189 22 -148 0
-168 -2 -189 -19z m261 -581 l0 -460 -70 0 -70 0 0 460 0 460 70 0 70 0 0
-460z"/>
<path d="M2034 3449 c-42 -21 -44 -41 -44 -490 l0 -430 25 -24 c24 -25 27 -25
190 -25 163 0 166 0 190 25 l25 24 0 439 c0 418 -1 441 -19 463 -19 23 -24 24
-183 26 -100 2 -171 -2 -184 -8z"/>
<path d="M1401 3204 c-20 -26 -21 -38 -21 -351 l0 -324 25 -24 c24 -25 27 -25
190 -25 163 0 166 0 190 25 l25 24 0 324 c0 313 -1 325 -21 351 l-20 26 -174
0 -174 0 -20 -26z m269 -349 l0 -235 -75 0 -75 0 0 235 0 235 75 0 75 0 0
-235z"/>
<path d="M1406 2255 c-41 -41 -26 -98 31 -115 27 -8 265 -10 796 -8 l759 3 19
24 c23 28 24 59 3 89 l-15 22 -789 0 c-689 0 -790 -2 -804 -15z"/>
<path d="M1401 1904 c-26 -33 -26 -55 -2 -85 l19 -24 787 0 787 0 19 24 c25
30 24 66 -1 91 -20 20 -33 20 -804 20 l-785 0 -20 -26z"/>
<path d="M1401 1564 c-27 -35 -26 -59 4 -89 l24 -25 503 0 c277 0 513 3 526 6
27 8 54 56 45 81 -3 10 -13 26 -21 36 -14 16 -52 17 -538 17 l-523 0 -20 -26z"/>
<path d="M1401 1224 c-27 -35 -26 -59 4 -89 l24 -25 514 0 c485 0 516 1 538
18 31 26 31 78 0 104 -22 17 -53 18 -541 18 l-519 0 -20 -26z"/>
<path d="M3765 1030 l-290 -290 -110 111 c-61 61 -121 115 -134 120 -51 20
-113 -37 -97 -88 3 -10 75 -87 159 -171 127 -126 158 -152 183 -152 24 0 76
48 356 328 356 355 356 355 303 407 -51 52 -55 50 -370 -265z"/>
</g>
</svg>
